<svg width="32" height="32" viewBox="0 0 32 32" fill="none" xmlns="http://www.w3.org/2000/svg">
  <path d="M26.8111 20.6419L25.3545 25.378L22.4949 24.6259L26.8111 20.6419Z" fill="#E4761B" stroke="#E4761B" stroke-width="0.0571157"/>
  <path d="M22.4949 24.6259L25.253 20.9921L26.8111 20.6419L22.4949 24.6259Z" fill="#E4761B" stroke="#E4761B" stroke-width="0.0571157"/>
  <path d="M24.6682 17.0715L26.8114 20.6422L25.2533 20.9924L24.6682 17.0715ZM24.6682 17.0715L26.0473 16.153L26.8114 20.6422L24.6682 17.0715Z" fill="#F6851B" stroke="#F6851B" stroke-width="0.0571157"/>
  <path d="M22.9128 14.3733L26.8769 12.8118L26.6799 13.6672L22.9128 14.3733ZM26.5545 14.6948L22.9128 14.3733L26.6799 13.6672L26.5545 14.6948Z" fill="#763D16" stroke="#763D16" stroke-width="0.0571157"/>
  <path d="M26.5545 14.6948L26.0471 16.1529L22.9128 14.3733L26.5545 14.6948ZM27.3485 13.1735L26.6799 13.6672L26.8769 12.8118L27.3485 13.1735ZM26.5545 14.6948L26.6799 13.6672L27.2112 14.092L26.5545 14.6948Z" fill="#763D16" stroke="#763D16" stroke-width="0.0571157"/>
  <path d="M19.4207 23.472L20.4117 23.7762L22.4952 24.6259L19.4207 23.472Z" fill="#E2761B" stroke="#E2761B" stroke-width="0.0571157"/>
  <path d="M26.0476 16.1533L26.555 14.6952L26.9909 15.0167L26.0476 16.1533ZM26.0476 16.1533L21.9343 14.8502L22.9134 14.3737L26.0476 16.1533Z" fill="#763D16" stroke="#763D16" stroke-width="0.0571157"/>
  <path d="M23.8925 9.90167L22.9134 14.3737L21.9343 14.8501L23.8925 9.90167Z" fill="#763D16" stroke="#763D16" stroke-width="0.0571157"/>
  <path d="M26.8769 12.8122L22.9128 14.3737L23.8919 9.90167L26.8769 12.8122Z" fill="#763D16" stroke="#763D16" stroke-width="0.0571157"/>
  <path d="M23.8921 9.90133L28.0292 9.44208L26.8771 12.8119L23.8921 9.90133Z" fill="#763D16" stroke="#763D16" stroke-width="0.0571157"/>
  <path d="M26.0476 16.1534L24.6686 17.0719L21.9343 14.8503L26.0476 16.1534Z" fill="#F6851B" stroke="#F6851B" stroke-width="0.0571157"/>
  <path d="M27.8502 6.22137L28.0292 9.4419L23.8921 9.90115L27.8502 6.22137Z" fill="#763D16" stroke="#763D16" stroke-width="0.0571157"/>
  <path d="M27.8507 6.22137L19.5823 12.0022L19.4749 8.08136L27.8507 6.22137Z" fill="#E2761B" stroke="#E2761B" stroke-width="0.0571157"/>
  <path d="M13.3257 7.61066L19.4747 8.08139L19.5822 12.0023L13.3257 7.61066Z" fill="#F6851B" stroke="#F6851B" stroke-width="0.0571157"/>
  <path d="M21.9344 14.8501L19.5823 12.0028L23.8926 9.90167L21.9344 14.8501Z" fill="#763D16" stroke="#763D16" stroke-width="0.0571157"/>
  <path d="M21.934 14.8503L24.6683 17.0719L20.8296 17.4795L21.934 14.8503Z" fill="#E4761B" stroke="#E4761B" stroke-width="0.0571157"/>
  <path d="M20.83 17.4792L19.5823 12.0026L21.9344 14.85L20.83 17.4792Z" fill="#E4761B" stroke="#E4761B" stroke-width="0.0571157"/>
  <path d="M23.8926 9.90115L19.5823 12.0022L27.8506 6.22137L23.8926 9.90115Z" fill="#763D16" stroke="#763D16" stroke-width="0.0571157"/>
  <path d="M13.379 24.5341L15.3312 26.4917L12.6746 24.1667L13.379 24.5341Z" fill="#C0AD9E" stroke="#C0AD9E" stroke-width="0.0571157"/>
  <path d="M22.4949 24.626L23.4202 21.2448L25.253 20.9922L22.4949 24.626Z" fill="#CD6116" stroke="#CD6116" stroke-width="0.0571157"/>
  <path d="M5.46313 15.1136L8.84211 11.6979L5.89894 14.7061L5.46313 15.1136Z" fill="#E2761B" stroke="#E2761B" stroke-width="0.0571157"/>
  <path d="M25.2536 20.9922L23.4208 21.2448L24.6685 17.0713L25.2536 20.9922ZM19.5822 12.0023L16.2927 11.8989L13.3257 7.61066L19.5822 12.0023Z" fill="#F6851B" stroke="#F6851B" stroke-width="0.0571157"/>
  <path d="M24.6683 17.0716L23.4206 21.2451L23.3191 19.2071L24.6683 17.0716Z" fill="#E4751F" stroke="#E4751F" stroke-width="0.0571157"/>
  <path d="M20.8296 17.4792L24.6683 17.0716L23.3191 19.2071L20.8296 17.4792Z" fill="#CD6116" stroke="#CD6116" stroke-width="0.0571157"/>
  <path d="M16.2925 11.8991L19.5819 12.0024L20.8296 17.4791L16.2925 11.8991Z" fill="#F6851B" stroke="#F6851B" stroke-width="0.0571157"/>
  <path d="M16.2923 11.8992L7.41505 4L13.3253 7.61089L16.2923 11.8992ZM13.3193 25.7342L5.60616 28.0305L4.06592 22.3759L13.3193 25.7342Z" fill="#E4761B" stroke="#E4761B" stroke-width="0.0571157"/>
  <path d="M6.60962 16.5261L9.52294 14.3275L11.9646 14.8728L6.60962 16.5261Z" fill="#763D16" stroke="#763D16" stroke-width="0.0571157"/>
  <path d="M11.9647 14.8729L9.52295 14.3276L10.8304 9.138L11.9647 14.8729Z" fill="#763D16" stroke="#763D16" stroke-width="0.0571157"/>
  <path d="M5.89917 14.7063L9.52292 14.3275L6.60959 16.5261L5.89917 14.7063Z" fill="#763D16" stroke="#763D16" stroke-width="0.0571157"/>
  <path d="M23.319 19.2071L21.8146 18.4781L20.8296 17.4792L23.319 19.2071Z" fill="#CD6116" stroke="#CD6116" stroke-width="0.0571157"/>
  <path d="M5.8988 14.7062L5.64209 13.403L9.52254 14.3273L5.8988 14.7062Z" fill="#763D16" stroke="#763D16" stroke-width="0.0571157"/>
  <path d="M21.5042 20.1197L21.8146 18.4778L23.319 19.2069L21.5042 20.1197Z" fill="#233447" stroke="#233447" stroke-width="0.0571157"/>
  <path d="M23.4205 21.245L21.5042 20.1198L23.319 19.207L23.4205 21.245Z" fill="#F6851B" stroke="#F6851B" stroke-width="0.0571157"/>
  <path d="M9.52254 14.3276L5.64209 13.4033L5.32568 12.3069L9.52254 14.3276ZM10.83 9.138L9.52254 14.3276L5.32568 12.3069L10.83 9.138ZM10.83 9.138L16.2924 11.8993L11.9642 14.8729L10.83 9.138Z" fill="#763D16" stroke="#763D16" stroke-width="0.0571157"/>
  <path d="M11.9644 14.8728L16.2926 11.8991L18.2208 17.5652L11.9644 14.8728ZM18.2208 17.5652L12.239 17.4446L11.9644 14.8728L18.2208 17.5652Z" fill="#E4761B" stroke="#E4761B" stroke-width="0.0571157"/>
  <path d="M6.60962 16.5261L11.9646 14.8728L12.2393 17.4446L6.60962 16.5261ZM20.83 17.479L18.2211 17.5652L16.2928 11.8991L20.83 17.479Z" fill="#F6851B" stroke="#F6851B" stroke-width="0.0571157"/>
  <path d="M21.8146 18.4781L21.5042 20.1199L20.8296 17.4792L21.8146 18.4781Z" fill="#CD6116" stroke="#CD6116" stroke-width="0.0571157"/>
  <path d="M7.41553 4L16.2928 11.8992L10.8303 9.13791L7.41553 4Z" fill="#763D16" stroke="#763D16" stroke-width="0.0571157"/>
  <path d="M4.06665 22.376L11.5529 22.0775L13.32 25.7343L4.06665 22.376Z" fill="#E4761B" stroke="#E4761B" stroke-width="0.0571157"/>
  <path d="M13.3193 25.734L11.5522 22.0772L15.2297 21.905L13.3193 25.734Z" fill="#CD6116" stroke="#CD6116" stroke-width="0.0571157"/>
  <path d="M21.5048 20.1197L23.4212 21.2449L24.4778 23.6388L21.5048 20.1197ZM12.2395 17.4446L4.06665 22.3758L6.60984 16.5261L12.2395 17.4446ZM11.5529 22.0773L4.06665 22.3758L12.2395 17.4446L11.5529 22.0773ZM20.8302 17.479L21.3197 19.1897L18.9557 19.3218L20.8302 17.479ZM18.9557 19.3218L18.2214 17.5651L20.8302 17.479L18.9557 19.3218Z" fill="#F6851B" stroke="#F6851B" stroke-width="0.0571157"/>
  <path d="M15.3317 26.4921L13.3198 25.7344L20.3166 26.8653L15.3317 26.4921Z" fill="#C0AD9E" stroke="#C0AD9E" stroke-width="0.0571157"/>
  <path d="M6.60936 16.5262L5.46313 15.1139L5.89894 14.7064L6.60936 16.5262Z" fill="#763D16" stroke="#763D16" stroke-width="0.0571157"/>
  <path d="M21.1106 26.0272L20.3166 26.8653L13.3198 25.7344L21.1106 26.0272Z" fill="#D7C1B3" stroke="#D7C1B3" stroke-width="0.0571157"/>
  <path d="M21.4867 23.9716L13.3198 25.734L15.2302 21.905L21.4867 23.9716Z" fill="#E4761B" stroke="#E4761B" stroke-width="0.0571157"/>
  <path d="M13.3198 25.7344L21.4867 23.972L21.1106 26.0271L13.3198 25.7344Z" fill="#D7C1B3" stroke="#D7C1B3" stroke-width="0.0571157"/>
  <path d="M5.32553 12.3065L5.05688 7.89191L10.8298 9.13763L5.32553 12.3065ZM5.89864 14.7061L5.10464 13.9311L5.64194 13.403L5.89864 14.7061Z" fill="#763D16" stroke="#763D16" stroke-width="0.0571157"/>
  <path d="M16.8831 18.7018L18.2203 17.5651L18.0293 20.3436L16.8831 18.7018Z" fill="#CD6116" stroke="#CD6116" stroke-width="0.0571157"/>
  <path d="M18.2205 17.5651L16.8832 18.7018L14.937 19.672L18.2205 17.5651Z" fill="#CD6116" stroke="#CD6116" stroke-width="0.0571157"/>
  <path d="M24.4772 23.6389L24.113 23.3805L21.5042 20.1198L24.4772 23.6389Z" fill="#F6851B" stroke="#F6851B" stroke-width="0.0571157"/>
  <path d="M14.9374 19.672L12.239 17.4446L18.2209 17.5652L14.9374 19.672Z" fill="#CD6116" stroke="#CD6116" stroke-width="0.0571157"/>
  <path d="M18.03 20.3436L18.2211 17.5651L18.9554 19.3218L18.03 20.3436Z" fill="#E4751F" stroke="#E4751F" stroke-width="0.0571157"/>
  <path d="M4.84204 12.7429L5.32561 12.3066L5.64201 13.4031L4.84204 12.7429Z" fill="#763D16" stroke="#763D16" stroke-width="0.0571157"/>
  <path d="M18.0294 20.3437L14.937 19.672L16.8832 18.7018L18.0294 20.3437Z" fill="#233447" stroke="#233447" stroke-width="0.0571157"/>
  <path d="M10.8298 9.13791L5.05688 7.89218L7.41501 4L10.8298 9.13791Z" fill="#763D16" stroke="#763D16" stroke-width="0.0571157"/>
  <path d="M20.3164 26.8653L20.6448 27.7264L15.3315 26.4922L20.3164 26.8653Z" fill="#C0AD9E" stroke="#C0AD9E" stroke-width="0.0571157"/>
  <path d="M15.2295 21.905L14.937 19.6719L18.0294 20.3435L15.2295 21.905Z" fill="#F6851B" stroke="#F6851B" stroke-width="0.0571157"/>
  <path d="M12.239 17.4446L14.9374 19.672L15.2299 21.9052L12.239 17.4446Z" fill="#E4751F" stroke="#E4751F" stroke-width="0.0571157"/>
  <path d="M18.955 19.3218L21.319 19.1898L24.113 23.3805L18.955 19.3218ZM12.2388 17.4446L15.2297 21.9052L11.5522 22.0774L12.2388 17.4446Z" fill="#F6851B" stroke="#F6851B" stroke-width="0.0571157"/>
  <path d="M18.9554 19.3216L21.8926 23.6214L18.03 20.3434L18.9554 19.3216Z" fill="#E4751F" stroke="#E4751F" stroke-width="0.0571157"/>
  <path d="M18.03 20.3438L21.8926 23.6217L21.4866 23.9719L18.03 20.3438Z" fill="#F6851B" stroke="#F6851B" stroke-width="0.0571157"/>
  <path d="M21.4857 23.9715L15.2292 21.9049L18.0291 20.3434L21.4857 23.9715ZM24.1125 23.3803L21.8917 23.6214L18.9545 19.3216L24.1125 23.3803Z" fill="#F6851B" stroke="#F6851B" stroke-width="0.0571157"/>
  <path d="M24.6978 25.4011L23.7427 27.2438L20.6443 27.726L24.6978 25.4011ZM20.6443 27.726L20.3159 26.8649L21.1099 26.0268L20.6443 27.726Z" fill="#C0AD9E" stroke="#C0AD9E" stroke-width="0.0571157"/>
  <path d="M21.1104 26.0268L21.6955 25.8029L20.6448 27.726L21.1104 26.0268ZM20.6448 27.726L21.6955 25.8029L24.6984 25.4011L20.6448 27.726Z" fill="#C0AD9E" stroke="#C0AD9E" stroke-width="0.0571157"/>
  <path d="M24.1132 23.3802L24.8475 23.8107L22.6147 24.0691L24.1132 23.3802Z" fill="#161616" stroke="#161616" stroke-width="0.0571157"/>
  <path d="M22.6152 24.0691L21.8928 23.6213L24.1136 23.3802L22.6152 24.0691ZM22.3585 24.4078L25.0748 24.092L24.6987 25.4009L22.3585 24.4078Z" fill="#161616" stroke="#161616" stroke-width="0.0571157"/>
  <path d="M24.698 25.4014L21.6952 25.8032L22.3578 24.4082L24.698 25.4014ZM21.6952 25.8032L21.1101 26.0271L21.4862 23.9719L21.6952 25.8032ZM21.4862 23.9719L21.8922 23.6218L22.6145 24.0695L21.4862 23.9719ZM24.8473 23.8112L25.0741 24.0925L22.3578 24.4082L24.8473 23.8112Z" fill="#161616" stroke="#161616" stroke-width="0.0571157"/>
  <path d="M22.3582 24.4083L22.6149 24.0695L24.8476 23.8112L22.3582 24.4083ZM21.4866 23.972L22.3582 24.4083L21.6955 25.8032L21.4866 23.972Z" fill="#161616" stroke="#161616" stroke-width="0.0571157"/>
  <path d="M22.6149 24.0696L22.3582 24.4083L21.4866 23.972L22.6149 24.0696Z" fill="#161616" stroke="#161616" stroke-width="0.0571157"/>
</svg>
  